{"accessors" : [{"bufferView" : 0, "byteOffset" : 0, "componentType" : 5123, "count" : 3300, "type" : "SCALAR", "max" : [2811], "min" : [0]}, {"bufferView" : 1, "byteOffset" : 0, "componentType" : 5126, "count" : 2812, "type" : "VEC3", "max" : [0.47071799635887146, 0.47071799635887146, 0.4000000059604645], "min" : [-0.29864799976348877, -0.47071799635887146, -0.4000000059604645], "name" : "POSITION"}, {"bufferView" : 1, "byteOffset" : 12, "componentType" : 5126, "count" : 2812, "type" : "VEC2", "max" : [0.09200000017881393, 0.07150699943304062], "min" : [-0.07034900039434433, -0.03734000027179718], "name" : "TEXCOORD_0"}, {"bufferView" : 1, "byteOffset" : 20, "componentType" : 5126, "count" : 2812, "type" : "VEC3", "max" : [1.0000044107437134, 1.0000044107437134, 1.0000044107437134], "min" : [-0.9932430386543274, -1.0000044107437134, -1.0000044107437134], "name" : "NORMAL"}], "asset" : {"generator" : "Aspose.3D 23.2", "version" : "2.0"}, "buffers" : [{"uri" : "data:application/octet-stream;base64,", "byteLength" : 112208}], "bufferViews" : [{"buffer" : 0, "byteOffset" : 0, "byteLength" : 6600, "target" : 34963}, {"buffer" : 0, "byteOffset" : 6604, "byteLength" : 105600, "byteStride" : 32, "target" : 34962}], "meshes" : [{"primitives" : [{"attributes" : {"POSITION" : 1, "TEXCOORD_0" : 2, "NORMAL" : 3}, "indices" : 0, "mode" : 4}], "name" : ""}], "nodes" : [{"mesh" : 0, "name" : "Body1"}], "scene" : 0, "scenes" : [{"nodes" : [0]}]}